<?xml version="1.0" encoding="UTF-8"?>
<svg id="Capa_2" data-name="Capa 2" xmlns="http://www.w3.org/2000/svg" viewBox="0 0 61.41 83.18">
  <defs>
    <style>
      .cls-1 {
        fill: #e30b17;
      }
    </style>
  </defs>
  <g id="Capa_1-2" data-name="Capa 1">
    <path class="cls-1" d="m22.96,2.41c.15,20.26.14,40.52-.04,60.77-.05,5.81-.12,11.62-.2,17.43l3.76-2.16c-11.1-7.96-17.14-21.03-21.54-33.55l-4.18,2.43c9.43,10.54,18.59,21.32,27.47,32.33.81,1,2.72.94,3.54,0,9.64-11.22,19.28-22.45,28.93-33.67.88-1.02,1.01-2.53,0-3.54-.9-.9-2.65-1.03-3.54,0-9.64,11.22-19.28,22.45-28.93,33.67h3.54c-8.88-11.01-18.04-21.79-27.47-32.33-1.63-1.82-5,.09-4.18,2.43,4.87,13.88,11.57,27.75,23.83,36.54,1.6,1.15,3.74-.41,3.76-2.16.27-20.26.38-40.51.33-60.77-.02-5.81-.05-11.62-.09-17.44-.02-3.22-5.02-3.22-5,0h0Z"/>
  </g>
</svg>